<?xml version="1.0" encoding="utf-8"?>
<!-- Generator: Adobe Illustrator 16.2.0, SVG Export Plug-In . SVG Version: 6.00 Build 0)  -->
<!DOCTYPE svg PUBLIC "-//W3C//DTD SVG 1.1//EN" "http://www.w3.org/Graphics/SVG/1.1/DTD/svg11.dtd">
<svg version="1.1" id="Layer_1" xmlns="http://www.w3.org/2000/svg" xmlns:xlink="http://www.w3.org/1999/xlink" x="0px" y="0px"
	 width="81px" height="7px" viewBox="0 0 81 7" enable-background="new 0 0 81 7" xml:space="preserve">
<path enable-background="new    " d="M70.54,7l-5.011-5.16l-5,5.16l-5.01-5.16L50.51,7l-5-5.16L40.5,7l-5.01-5.16l-5,5.16
	l-5.01-5.16L20.47,7l-5-5.16L10.46,7L5.45,1.84l-4.56,4.7L0,5.62L5.45,0l5.01,5.16L15.47,0l5,5.16L25.48,0l5.01,5.16l5-5.16
	l5.01,5.16L45.51,0l5,5.16L55.52,0l5.01,5.16l5-5.16l5.011,5.16L75.55,0L81,5.62l-0.891,0.92l-4.56-4.7L70.54,7z"/>
</svg>
