<?xml version="1.0" encoding="utf-8"?>
<!-- Generator: Adobe Illustrator 16.2.0, SVG Export Plug-In . SVG Version: 6.00 Build 0)  -->
<!DOCTYPE svg PUBLIC "-//W3C//DTD SVG 1.1//EN" "http://www.w3.org/Graphics/SVG/1.1/DTD/svg11.dtd">
<svg version="1.1" id="Layer_1" xmlns="http://www.w3.org/2000/svg" xmlns:xlink="http://www.w3.org/1999/xlink" x="0px" y="0px"
	 width="17px" height="17px" viewBox="0 0 17 17" enable-background="new 0 0 17 17" xml:space="preserve">
<path d="M15.5,10C14.67,10,14,9.33,14,8.5S14.67,7,15.5,7S17,7.67,17,8.5S16.33,10,15.5,10z M12.391,4.61
	c-0.591-0.59-0.591-1.53,0-2.12c0.59-0.59,1.529-0.59,2.119,0c0.59,0.59,0.59,1.53,0,2.12C13.92,5.2,12.98,5.2,12.391,4.61z M8.5,17
	C7.67,17,7,16.33,7,15.5S7.67,14,8.5,14s1.5,0.67,1.5,1.5S9.33,17,8.5,17z M8.5,10C7.67,10,7,9.33,7,8.5S7.67,7,8.5,7
	S10,7.67,10,8.5S9.33,10,8.5,10z M8.5,3C7.67,3,7,2.33,7,1.5S7.67,0,8.5,0S10,0.67,10,1.5S9.33,3,8.5,3z M2.49,14.51
	c-0.59-0.59-0.59-1.529,0-2.119c0.59-0.591,1.53-0.591,2.12,0c0.59,0.59,0.59,1.529,0,2.119C4.02,15.1,3.08,15.1,2.49,14.51z
	 M2.46,4.57c-0.59-0.59-0.59-1.55,0-2.14c0.59-0.59,1.55-0.59,2.14,0c0.59,0.59,0.59,1.55,0,2.14C4.01,5.16,3.05,5.16,2.46,4.57z
	 M3,8.5C3,9.33,2.33,10,1.5,10S0,9.33,0,8.5S0.67,7,1.5,7S3,7.67,3,8.5z M14.57,12.4c0.59,0.59,0.59,1.55,0,2.14
	s-1.551,0.59-2.141,0s-0.59-1.55,0-2.14S13.98,11.811,14.57,12.4z"/>
</svg>
