<?xml version="1.0" encoding="utf-8"?>
<!-- Generator: Adobe Illustrator 16.2.0, SVG Export Plug-In . SVG Version: 6.00 Build 0)  -->
<!DOCTYPE svg PUBLIC "-//W3C//DTD SVG 1.1//EN" "http://www.w3.org/Graphics/SVG/1.1/DTD/svg11.dtd">
<svg version="1.1" id="Layer_1" xmlns="http://www.w3.org/2000/svg" xmlns:xlink="http://www.w3.org/1999/xlink" x="0px" y="0px"
	 width="18px" height="16px" viewBox="0 0 18 16" enable-background="new 0 0 18 16" xml:space="preserve">
<path enable-background="new    " d="M18.01,2.54c-0.64,0.29-1.33,0.49-2.06,0.57c0.739-0.44,1.31-1.15,1.579-1.99
	C16.83,1.53,16.07,1.83,15.25,1.99c-0.66-0.7-1.59-1.14-2.62-1.14c-1.989,0-3.6,1.62-3.6,3.61c0,0.28,0.03,0.56,0.1,0.82
	C6.14,5.13,3.49,3.7,1.72,1.51C1.41,2.05,1.24,2.67,1.24,3.33c0,1.25,0.63,2.35,1.59,3C2.25,6.31,1.69,6.15,1.21,5.88
	c0,0.02,0,0.03,0,0.05c0,1.74,1.23,3.2,2.88,3.53c-0.3,0.09-0.62,0.13-0.95,0.13c-0.23,0-0.45-0.02-0.67-0.07
	c0.45,1.44,1.78,2.48,3.35,2.51C4.59,13,3.04,13.58,1.36,13.58c-0.29,0-0.58-0.02-0.86-0.051c1.59,1.021,3.48,1.621,5.51,1.621
	c6.61,0,10.221-5.5,10.221-10.271c0-0.16,0-0.31-0.01-0.47C16.92,3.9,17.529,3.27,18.01,2.54z"/>
</svg>
